Coordinates
version=1
nRows=29
nColumns=38
inDegrees=no

Units are S.I. units (second, meters, Newtons, ...)
If the header above contains a line with 'inDegrees', this indicates whether rotational values are in degrees (yes) or radians (no).

endheader
time	pelvis_tilt	pelvis_list	pelvis_rotation	pelvis_tx	pelvis_ty	pelvis_tz	hip_flexion_r	hip_adduction_r	hip_rotation_r	knee_angle_r	ankle_angle_r	subtalar_angle_r	mtp_angle_r	hip_flexion_l	hip_adduction_l	hip_rotation_l	knee_angle_l	ankle_angle_l	subtalar_angle_l	mtp_angle_l	lumbar_extension	lumbar_bending	lumbar_rotation	arm_flex_r	arm_add_r	arm_rot_r	elbow_flex_r	pro_sup_r	wrist_flex_r	wrist_dev_r	arm_flex_l	arm_add_l	arm_rot_l	elbow_flex_l	pro_sup_l	wrist_flex_l	wrist_dev_l
3.87	0.106659	0.0436256	-0.00283783	0.960106	0.951134	-0.326428	0.348544	-0.0547548	-0.023395	-1.41722	-0.0152643	-0.00669168	8.85539e-05	0.039597	0.131166	0.0271763	-0.680059	0.410461	-0.0202147	0.000200687	-0.409182	-0.051388	-0.0506978	-0.516286	-0.330225	-0.0683528	1.72793	1.58902	0.0517438	0.0158145	-0.0938621	-0.43143	0.0388238	2.02587	2.15892	0.079674	-0.0283897
3.88	0.098734	0.0321194	0.00350211	0.959654	0.954238	-0.326662	0.379277	-0.0458828	-0.0409648	-1.38219	-0.00231261	-0.00669168	8.85539e-05	0.00817344	0.117634	0.0361903	-0.645825	0.399369	-0.0202147	0.000200687	-0.401503	-0.0336536	-0.0615476	-0.541648	-0.323136	-0.0709566	1.73117	1.57818	0.0517438	0.0158145	-0.076127	-0.433663	0.0485031	2.04521	2.13714	0.079674	-0.0283897
3.89	0.0900466	0.0196066	0.00989541	0.959408	0.957749	-0.326785	0.406425	-0.0372123	-0.062454	-1.33704	0.0079694	-0.00669168	8.85539e-05	-0.0231078	0.102301	0.0432132	-0.609027	0.381095	-0.0202147	0.000200687	-0.392699	-0.0149801	-0.0720113	-0.566606	-0.316692	-0.073432	1.73731	1.56698	0.0517438	0.0158145	-0.0622664	-0.4349	0.0571031	2.06655	2.11433	0.079674	-0.0283897
3.9	0.0806924	0.00632449	0.0157611	0.959357	0.961587	-0.32674	0.429804	-0.0280565	-0.086012	-1.28194	0.015879	-0.00669168	8.85539e-05	-0.0538761	0.0854281	0.0473401	-0.570466	0.355363	-0.0202147	0.000200687	-0.382912	0.00407217	-0.081615	-0.590577	-0.310723	-0.0755887	1.74496	1.55586	0.0517438	0.0158145	-0.0520566	-0.435238	0.0645023	2.08908	2.09254	0.079674	-0.0283897
3.91	0.0708164	-0.00737771	0.0205841	0.959493	0.965665	-0.326481	0.449223	-0.0177054	-0.109499	-1.21719	0.0218968	-0.00669168	8.85539e-05	-0.0838382	0.0674383	0.0479133	-0.530983	0.322231	-0.0202147	0.000200687	-0.372348	0.0229034	-0.089943	-0.613074	-0.305022	-0.0772965	1.75296	1.54521	0.0517438	0.0158145	-0.0452154	-0.434798	0.0706347	2.11205	2.07342	0.079674	-0.0283897
3.92	0.0606072	-0.0210598	0.0239704	0.959812	0.969881	-0.325979	0.464496	-0.00562277	-0.130701	-1.14326	0.0266414	-0.00669168	8.85539e-05	-0.112775	0.0489297	0.0446251	-0.491478	0.282162	-0.0202147	0.000200687	-0.361271	0.040875	-0.096689	-0.63375	-0.29938	-0.078509	1.76045	1.53542	0.0517438	0.0158145	-0.0414299	-0.433716	0.0755093	2.13479	2.0581	0.079674	-0.0283897
3.93	0.0502897	-0.0341944	0.0256807	0.960312	0.974124	-0.325213	0.475466	0.0083938	-0.147588	-1.06096	0.0307979	-0.00669168	8.85539e-05	-0.140507	0.0306526	0.0375875	-0.452936	0.236053	-0.0202147	0.000200687	-0.349979	0.0573386	-0.101696	-0.652404	-0.293624	-0.0792541	1.76693	1.52689	0.0517438	0.0158145	-0.0403804	-0.432143	0.0792138	2.15672	2.04705	0.079674	-0.0283897
3.94	0.0401203	-0.0461877	0.0256521	0.960991	0.97827	-0.324189	0.482045	0.0241145	-0.158587	-0.971539	0.0350248	-0.00669168	8.85539e-05	-0.166854	0.0134531	0.0273444	-0.416469	0.185224	-0.0202147	0.000200687	-0.338784	0.0716735	-0.104976	-0.668967	-0.287648	-0.0796057	1.77222	1.51995	0.0517438	0.0158145	-0.0417539	-0.430234	0.0819017	2.17736	2.04015	0.079674	-0.0283897
3.95	0.0303746	-0.0564302	0.0240029	0.961845	0.982177	-0.32294	0.484267	0.040865	-0.16283	-0.87685	0.0398415	-0.00669168	8.85539e-05	-0.191585	-0.00180847	0.0148231	-0.383348	0.131337	-0.0202147	0.000200687	-0.327992	0.0833316	-0.10671	-0.683468	-0.281436	-0.079655	1.77643	1.51485	0.0517438	0.0158145	-0.0452516	-0.428155	0.0837664	2.19631	2.03681	0.079674	-0.0283897
3.96	0.0213411	-0.064368	0.0210208	0.962866	0.985702	-0.321516	0.482334	0.0576071	-0.160332	-0.779388	0.0455053	-0.00669168	8.85539e-05	-0.214388	-0.0143567	0.0012332	-0.355003	0.0762512	-0.0202147	0.000200687	-0.317885	0.0918906	-0.107225	-0.695994	-0.275058	-0.0794863	1.77987	1.51177	0.0517438	0.0158145	-0.050588	-0.426069	0.0850113	2.21326	2.03624	0.079674	-0.0283897
3.97	0.0133203	-0.0695933	0.0171344	0.964038	0.98871	-0.319976	0.476636	0.0730974	-0.152058	-0.682266	0.0518999	-0.00669168	8.85539e-05	-0.234866	-0.0236051	-0.0120776	-0.332985	0.0218353	-0.0202147	0.000200687	-0.308727	0.0971072	-0.106948	-0.706653	-0.268657	-0.0791649	1.78295	1.51073	0.0517438	0.0158145	-0.0574857	-0.424136	0.0858227	2.22795	2.03759	0.079674	-0.0283897
3.98	0.00661185	-0.0718966	0.0128612	0.965345	0.99109	-0.318392	0.467746	0.0861093	-0.139842	-0.589086	0.0584713	-0.00669168	8.85539e-05	-0.252574	-0.029256	-0.0238024	-0.318879	-0.0302509	-0.0202147	0.000200687	-0.30078	0.0989783	-0.106336	-0.715558	-0.262431	-0.078739	1.78616	1.51164	0.0517438	0.0158145	-0.0656737	-0.422493	0.0863444	2.24015	2.04019	0.079674	-0.0283897
3.99	0.00151705	-0.0713191	0.00873063	0.966776	0.992772	-0.316853	0.45639	0.0956626	-0.126131	-0.503685	0.0642582	-0.00669168	8.85539e-05	-0.267062	-0.0313688	-0.032869	-0.314185	-0.0787433	-0.0202147	0.000200687	-0.294311	0.0977769	-0.105778	-0.722809	-0.256607	-0.078253	1.78993	1.51428	0.0517438	0.0158145	-0.0748872	-0.421244	0.0866614	2.2497	2.04354	0.079674	-0.0283897
4	-0.00167613	-0.0681958	0.00519651	0.968319	0.99372	-0.315446	0.443374	0.101226	-0.113557	-0.429801	0.0680475	-0.00669168	8.85539e-05	-0.277945	-0.0303844	-0.0386269	-0.320166	-0.122897	-0.0202147	0.000200687	-0.289596	0.0940507	-0.105502	-0.728495	-0.251423	-0.0777604	1.79466	1.51833	0.0517438	0.0158145	-0.0848694	-0.420442	0.0867925	2.2564	2.04738	0.079674	-0.0283897
4.01	-0.00272676	-0.0631498	0.00255653	0.969912	0.993766	-0.314225	0.429519	0.102845	-0.104428	-0.370692	0.0686591	-0.00669168	8.85539e-05	-0.28494	-0.0271072	-0.0409777	-0.337714	-0.162495	-0.0202147	0.000200687	-0.286894	0.0885869	-0.105493	-0.732688	-0.247114	-0.0773309	1.80061	1.52337	0.0517438	0.0158145	-0.0953763	-0.420072	0.0866969	2.26005	2.0516	0.079674	-0.0283897
4.02	-0.00149516	-0.0570266	0.000909461	0.971531	0.992961	-0.313214	0.415619	0.101153	-0.100247	-0.328802	0.0653266	-0.00669168	8.85539e-05	-0.287871	-0.0226443	-0.040414	-0.367267	-0.197712	-0.0202147	0.000200687	-0.286394	0.0823392	-0.10548	-0.735428	-0.243899	-0.0770442	1.80794	1.5289	0.0517438	0.0158145	-0.106186	-0.420046	0.0862924	2.26046	2.0562	0.079674	-0.0283897
4.03	0.00199938	-0.0508022	0.000154036	0.973135	0.991336	-0.312384	0.402431	0.0972694	-0.1014	-0.305545	0.0580925	-0.00669168	8.85539e-05	-0.286622	-0.0183046	-0.0379588	-0.408779	-0.22887	-0.0202147	0.000200687	-0.288147	0.0763191	-0.104976	-0.736707	-0.241969	-0.0769717	1.81661	1.53445	0.0517438	0.0158145	-0.117112	-0.420213	0.0854825	2.25744	2.0612	0.079674	-0.0283897
4.04	0.00754029	-0.0454623	2.46262e-05	0.974669	0.988886	-0.311662	0.390686	0.0926055	-0.107101	-0.301218	0.048096	-0.00669168	8.85539e-05	-0.281095	-0.0154681	-0.0350138	-0.461723	-0.256163	-0.0202147	0.000200687	-0.292022	0.0714721	-0.103365	-0.736433	-0.241492	-0.0771469	1.82638	1.53953	0.0517438	0.0158145	-0.128024	-0.42038	0.084181	2.25085	2.06658	0.079674	-0.0283897
4.05	0.0147098	-0.0418776	0.000152726	0.976071	0.985571	-0.310946	0.381073	0.0886224	-0.115621	-0.315049	0.0376183	-0.00669168	8.85539e-05	-0.271181	-0.0154263	-0.0331247	-0.525132	-0.279428	-0.0202147	0.000200687	-0.297702	0.0685533	-0.100018	-0.734395	-0.242605	-0.0775299	1.83679	1.5437	0.0517438	0.0158145	-0.138869	-0.420343	0.0823257	2.24067	2.07225	0.079674	-0.0283897
4.06	0.0229196	-0.0406748	0.0001446	0.977273	0.98132	-0.310138	0.374163	0.0865814	-0.12478	-0.345297	0.0297752	-0.00669168	8.85539e-05	-0.256758	-0.0192099	-0.0336801	-0.597665	-0.298054	-0.0202147	0.000200687	-0.304736	0.0680324	-0.0944272	-0.730228	-0.245417	-0.077977	1.84716	1.54664	0.0517438	0.0158145	-0.149692	-0.419909	0.0798711	2.22701	2.07807	0.079674	-0.0283897
4.07	0.0315471	-0.0421296	-0.000339855	0.978235	0.976436	-0.309182	0.370301	0.0873282	-0.132542	-0.389385	0.0278697	-0.00669168	8.85539e-05	-0.237699	-0.0274154	-0.0375947	-0.677663	-0.311067	-0.0202147	0.000200687	-0.312589	0.0700372	-0.0863205	-0.723407	-0.250008	-0.0782145	1.85662	1.54819	0.0517438	0.0158145	-0.160643	-0.418907	0.0767659	2.21018	2.08389	0.079674	-0.0283897
4.08	0.0399725	-0.046146	-0.00150332	0.978925	0.971185	-0.308054	0.369429	0.0911533	-0.137512	-0.444007	0.0345621	-0.00669168	8.85539e-05	-0.213933	-0.0400592	-0.0450536	-0.763221	-0.317402	-0.0202147	0.000200687	-0.320746	0.0743355	-0.0757557	-0.713266	-0.256431	-0.0778334	1.86421	1.54836	0.0517438	0.0158145	-0.171972	-0.417189	0.0729259	2.19065	2.08965	0.079674	-0.0283897
4.09	0.0476747	-0.0522915	-0.00336709	0.979294	0.965837	-0.306748	0.370979	0.0977772	-0.139165	-0.505276	0.0511748	-0.00669168	8.85539e-05	-0.185487	-0.0565254	-0.0554068	-0.852241	-0.31629	-0.0202147	0.000200687	-0.328782	0.080392	-0.0631468	-0.699075	-0.264702	-0.0763152	1.86895	1.54735	0.0517438	0.0158145	-0.183995	-0.414621	0.0682192	2.16906	2.09538	0.079674	-0.0283897
4.1	0.0542953	-0.0598877	-0.00576038	0.979275	0.960531	-0.305311	0.373881	0.106475	-0.137777	-0.568996	0.0774163	-0.00669168	8.85539e-05	-0.152534	-0.0756388	-0.067273	-0.942504	-0.307616	-0.0202147	0.000200687	-0.33641	0.0874908	-0.0491999	-0.680152	-0.274787	-0.0730986	1.87002	1.54556	0.0517438	0.0158145	-0.197031	-0.411081	0.0624812	2.14621	2.10123	0.079674	-0.0283897
4.11	0.0596713	-0.0681395	-0.00836571	0.978818	0.955316	-0.303863	0.376702	0.116296	-0.134141	-0.631071	0.111593	-0.00669168	8.85539e-05	-0.115432	-0.0958643	-0.0788388	-1.03176	-0.292106	-0.0202147	0.000200687	-0.343527	0.094899	-0.0347564	-0.656007	-0.286589	-0.067683	1.86693	1.54351	0.0517438	0.0158145	-0.211303	-0.406472	0.0555654	2.12292	2.10741	0.079674	-0.0283897
4.12	0.0638608	-0.0762992	-0.0108039	0.977916	0.950281	-0.302529	0.377879	0.126296	-0.129226	-0.68794	0.151134	-0.00669168	8.85539e-05	-0.0747477	-0.115566	-0.0882718	-1.11784	-0.271252	-0.0202147	0.000200687	-0.350205	0.102002	-0.0205769	-0.626491	-0.299916	-0.0597454	1.85969	1.54179	0.0517438	0.0158145	-0.226845	-0.400739	0.0474133	2.09999	2.11414	0.079674	-0.0283897
4.13	0.0671006	-0.0838	-0.012755	0.976598	0.945602	-0.301387	0.375957	0.135706	-0.123875	-0.736899	0.193171	-0.00669168	8.85539e-05	-0.0312359	-0.133258	-0.094117	-1.19872	-0.247011	-0.0202147	0.000200687	-0.356639	0.10837	-0.00715048	-0.591894	-0.314478	-0.0492356	1.84883	1.54091	0.0517438	0.0158145	-0.243449	-0.393899	0.0381083	2.07801	2.12172	0.079674	-0.0283897
4.14	0.0697003	-0.0902769	-0.0140558	0.974937	0.941496	-0.300465	0.369784	0.144018	-0.118623	-0.776219	0.235014	-0.00669168	8.85539e-05	0.0142199	-0.147794	-0.0955708	-1.27263	-0.221383	-0.0202147	0.000200687	-0.363053	0.113762	0.00540619	-0.55296	-0.329884	-0.0364057	1.83543	1.54116	0.0517438	0.0158145	-0.260711	-0.386065	0.0278764	2.05731	2.13048	0.079674	-0.0283897
4.15	0.0719397	-0.0955396	-0.0147449	0.973027	0.938151	-0.299757	0.358639	0.150969	-0.113627	-0.80509	0.274454	-0.00669168	8.85539e-05	0.0607052	-0.158443	-0.0925718	-1.33814	-0.196037	-0.0202147	0.000200687	-0.369591	0.118044	0.0173095	-0.510799	-0.345688	-0.0217673	1.82093	1.54252	0.0517438	0.0158145	-0.278161	-0.37746	0.0170292	2.03795	2.14087	0.079674	-0.0283897
